# xmcd
#
# Track frame offsets:
# 150
# 22134
# 37642
# 56108
# 72174
# 88463
# 104359
# 123398
#
# Disc length: 1854 seconds
#
# Revision: 1
# Processed by: cddbd v1.4PL0 Copyright (c) Steve Scherf et al.
# Submitted via: CedeCatalogueitor 2.5 http://usuarios.lycos.es/kakasboy
#
DISCID=6c073c08
DTITLE=Salsa Club Band - Exítos Del Verano Vol.3
DYEAR=2002
DGENRE=Salsa
TTITLE0=Díle Que La Quiero
TTITLE1=No Rompas Mi Corazón
TTITLE2=Sigue Al Líder (Follow The Leader)
TTITLE3=Yo Quiero Bailar
TTITLE4=Es Hora De Bailar
TTITLE5=Johanna
TTITLE6=La Pareja Ideal
TTITLE7=Cuanto, Cuanto, Cuanto
EXTD=
EXTT0=
EXTT1=
EXTT2=
EXTT3=
EXTT4=
EXTT5=
EXTT6=
EXTT7=
PLAYORDER=
